<?xml version="1.0" encoding="utf-8"?>
<!-- Generator: Adobe Illustrator 26.2.1, SVG Export Plug-In . SVG Version: 6.00 Build 0)  -->
<svg version="1.1" id="Слой_1" xmlns="http://www.w3.org/2000/svg" xmlns:xlink="http://www.w3.org/1999/xlink" x="0px" y="0px"
	 viewBox="0 0 59.9 60" style="enable-background:new 0 0 59.9 60;" xml:space="preserve">
<style type="text/css">
	.st0{fill:#FB774B;}
</style>
<g transform="translate(0.000000,60.000000) scale(0.100000,-0.100000)">
	<path class="st0" d="M203,584.7C-50.4,493.8-71.6,148.4,167.6,30.3c81.8-40.4,184.7-40.4,266.5,0c108,53.5,164.5,145.4,164.5,269.6
		c0,85.8-21.2,143.4-74.7,205C451.3,586.7,308.9,623.1,203,584.7z M375.6,470.6c15.1-12.1,26.2-30.3,26.2-44.4
		c0-17.2,6.1-25.2,22.2-27.3c20.2-3,24.2-13.1,40.4-104c9.1-55.5,17.2-118.1,17.2-138.3l1-38.4h-101c-55.5,0-121.1,5-145.3,12.1
		c-35.3,9.1-51.5,9.1-71.7,0c-38.4-18.2-41.4,3-19.2,143.4c17.2,112.1,21.2,122.2,42.4,125.2c15.1,2,22.2,10.1,22.2,26.3
		c0,26.3,33.3,60.6,52.5,54.5c8.1-3,5-9.1-10.1-17.2c-29.3-15.1-31.3-61.6-2-61.6c14.1,0,20.2,7.1,20.2,23.2
		c0,36.4,28.3,63.6,66.6,66.6C343.3,491.8,360.4,482.7,375.6,470.6z"/>
	<path class="st0" d="M302.9,469.5c-18.2-23.2-18.2-52.5,1-56.5c13.1-3,17.2,3,17.2,22.2c0,14.1,5,26.3,10.1,26.3
		c6.1,0,10.1-11.1,10.1-25.2c0-18.2,5-25.2,20.2-25.2s20.2,7.1,20.2,25.2C381.6,473.5,326.1,496.7,302.9,469.5z"/>
	<path class="st0" d="M169.7,318c-6.1-40.4-15.1-92.9-19.2-116.1c-9.1-43.4-6.1-48.5,23.2-37.4c13.1,5,16.1,22.2,16.1,84.8
		c0,44.4,5,82.8,10.1,85.8c6.1,4,10.1-25.2,10.1-78.8c0-79.8,2-85.8,22.2-90.9c12.1-4,24.2-5,26.2-3c2,3-4,54.5-14.1,116.1
		c-17.2,104-20.2,112.1-40.4,112.1S180.8,382.6,169.7,318z"/>
	<path class="st0" d="M264.5,269.5l20.2-121.2h89.8h90.8l-7.1,58.6c-4,31.3-12.1,85.8-18.2,121.2l-11.1,62.6H336h-91.8L264.5,269.5z
		 M363.5,272.6c11.1-10.1,18.2-11.1,23.2-4c8.1,13.1,35.3,15.1,35.3,2c0-16.2-59.5-24.2-75.7-11.1c-12.1,10.1-18.2,10.1-30.3,0
		s-15.1-10.1-15.1,2c0,19.2,21.2,39.4,34.3,31.3C341.2,289.7,353.4,280.6,363.5,272.6z"/>
</g>
<path d="M97.3,44.7"/>
<path d="M72.9,33.9"/>
<path d="M81.9,36.5"/>
<path d="M90.2-9"/>
<path d="M48.1-22.1"/>
</svg>
