<?xml version="1.0" encoding="utf-8"?>
<!-- Generator: Adobe Illustrator 26.2.1, SVG Export Plug-In . SVG Version: 6.00 Build 0)  -->
<svg version="1.1" id="Слой_1" xmlns="http://www.w3.org/2000/svg" xmlns:xlink="http://www.w3.org/1999/xlink" x="0px" y="0px"
	 viewBox="0 0 145 60" style="enable-background:new 0 0 145 60;" xml:space="preserve">
<style type="text/css">
	.st0{fill:#FB774B;}
	.st1{fill:#FFFFFF;}
</style>
<g transform="translate(0.000000,60.000000) scale(0.100000,-0.100000)">
	<path class="st0" d="M203,584.7C-50.4,493.8-71.6,148.4,167.6,30.3c81.8-40.4,184.7-40.4,266.5,0c108,53.5,164.5,145.4,164.5,269.6
		c0,85.8-21.2,143.4-74.7,205C451.3,586.7,308.9,623.1,203,584.7z M375.6,470.6c15.1-12.1,26.2-30.3,26.2-44.4
		c0-17.2,6.1-25.2,22.2-27.3c20.2-3,24.2-13.1,40.4-104c9.1-55.5,17.2-118.1,17.2-138.3l1-38.4H381.6c-55.5,0-121.1,5-145.3,12.1
		c-35.3,9.1-51.5,9.1-71.7,0c-38.4-18.2-41.4,3-19.2,143.4c17.2,112.1,21.2,122.2,42.4,125.2c15.1,2,22.2,10.1,22.2,26.3
		c0,26.3,33.3,60.6,52.5,54.5c8.1-3,5-9.1-10.1-17.2c-29.3-15.1-31.3-61.6-2-61.6c14.1,0,20.2,7.1,20.2,23.2
		c0,36.4,28.3,63.6,66.6,66.6C343.3,491.8,360.4,482.7,375.6,470.6z"/>
	<path class="st0" d="M302.9,469.5c-18.2-23.2-18.2-52.5,1-56.5c13.1-3,17.2,3,17.2,22.2c0,14.1,5,26.3,10.1,26.3
		c6.1,0,10.1-11.1,10.1-25.2c0-18.2,5-25.2,20.2-25.2s20.2,7.1,20.2,25.2C381.6,473.5,326.1,496.7,302.9,469.5z"/>
	<path class="st0" d="M169.7,318c-6.1-40.4-15.1-92.9-19.2-116.1c-9.1-43.4-6.1-48.5,23.2-37.4c13.1,5,16.1,22.2,16.1,84.8
		c0,44.4,5,82.8,10.1,85.8c6.1,4,10.1-25.2,10.1-78.8c0-79.8,2-85.8,22.2-90.9c12.1-4,24.2-5,26.2-3c2,3-4,54.5-14.1,116.1
		c-17.2,104-20.2,112.1-40.4,112.1S180.8,382.6,169.7,318z"/>
	<path class="st0" d="M264.5,269.5l20.2-121.2h89.8h90.8l-7.1,58.6c-4,31.3-12.1,85.8-18.2,121.2l-11.1,62.6h-92.9h-91.8
		L264.5,269.5z M363.5,272.6c11.1-10.1,18.2-11.1,23.2-4c8.1,13.1,35.3,15.1,35.3,2c0-16.2-59.5-24.2-75.7-11.1
		c-12.1,10.1-18.2,10.1-30.3,0s-15.1-10.1-15.1,2c0,19.2,21.2,39.4,34.3,31.3C341.2,289.7,353.4,280.6,363.5,272.6z"/>
	<path class="st1" d="M1290,363.4c-51.5-18.2-66.6-77.8-30.3-114.1c60.6-60.6,159.5,24.2,104,88.9
		C1343.5,361.4,1313.2,371.5,1290,363.4z M1335.4,308.9c10.1-30.3-18.2-57.6-39.4-39.4c-16.1,13.1-21.2,42.4-9.1,53.5
		C1301.1,337.2,1329.3,329.1,1335.4,308.9z"/>
	<g id="XMLID_00000141438251523361837840000000344507575648558741_">
		<g>
			<path class="st1" d="M802.6,350.5c0.3-1.1,0.2-4.4,0.1-11c-0.3-12.2-1.1-13.3-1.8-13.9c-3.2-2.8-8,1-17.9,1.3
				c-2.5,0.1-11.3,0.4-16.8-2.8c-12.5-7.3-10.2-34.5-9-49.8c1.9-23.1,7.5-36.5,0.5-42c-4.1-3.2-11.7-3.2-12.7-3.2
				c0,0-6.3,0-12.1,2.8c-7.5,3.7-7.3,44.2-7.6,55.4c-0.3,13.5-2.1,33.2-9.9,57.3c-2.9,4.4-5.8,8.9-8.8,13.4c0.7,1.5,2,3.6,4.3,5.5
				c5.1,4.2,13.4,5.6,17.8,2.1c5.5-4.3,1.3-14,5.5-16.3c3.7-2,10.4,2.8,17.6,9.7h0.1c4.8,2.2,8.5,3.9,8.7,4
				c3.3,1.5,10.6,2.3,17.9,1.1C782.3,363.5,799.1,360.8,802.6,350.5z"/>
		</g>
		<g>
		</g>
	</g>
	<path class="st1" d="M831.8,323c35.3-82.8,36.3-90.9,19.2-123.2c-15.1-30.3-15.1-31.3,8.1-31.3c20.2,0,29.3,13.1,64.6,95.9
		c41.4,95.9,41.4,95.9,18.2,95.9c-18.2,0-26.2-8.1-35.3-35.3c-13.1-40.4-25.2-38.4-35.3,5c-5,23.2-12.1,30.3-31.3,30.3
		C815.6,360.4,815.6,360.4,831.8,323z"/>
	<path class="st1" d="M987.2,293.8c0-57.6,2-64.6,19.2-64.6s20.2,8.1,23.2,48.5c3,39.4,6.1,47.5,23.2,47.5s20.2-8.1,23.2-47.5
		c3-39.4,7.1-48.5,22.2-48.5s19.2,9.1,22.2,48.5c3,39.4,6.1,47.5,23.2,47.5s20.2-8.1,23.2-47.5c3-40.4,6.1-48.5,23.2-48.5
		c16.1,0,19.2,7.1,19.2,53.5c0,29.3-5,58.6-12.1,65.6c-15.1,15.1-64.6,16.2-73.7,2c-5-7.1-11.1-8.1-19.2-1
		c-6.1,5-35.3,10.1-64.6,9.1h-52.5V293.8z"/>
	<path class="st1" d="M1406.1,259.4c-4-7.1-3-16.2,3-22.2c14.1-14.1,45.4-2,40.4,15.1C1443.4,268.5,1415.1,273.6,1406.1,259.4z"/>
</g>
<path d="M97.3,44.7"/>
<path d="M72.9,33.9"/>
<path d="M81.9,36.5"/>
<path d="M90.2-9"/>
<path d="M48.1-22.1"/>
</svg>
